<svg version="1.1" id="Layer_1" xmlns="http://www.w3.org/2000/svg" xmlns:xlink="http://www.w3.org/1999/xlink" x="0px" y="0px" width="215.344px" height="240px" viewBox="0 0 215.344 240" enable-background="new 0 0 215.344 240" xml:space="preserve"><g><clipPath id="SVGID_00000098196473159363713130000005384841478229902252_"><path id="SVGID_1_" d="M215.344,144.389c-0.534-25.12-22.426-42.838-44.033-53.295l0.191,0.182
			c-5.656-2.72-11.665-4.619-17.43-7.024l0.151,0.144c-52.604-20.629-16.409-29.572-50.532-28.879
			c-1.316,12.17-19.639,17.663-29.367,21.942l0.194-0.146c-5.774,2.01-11.811,3.159-17.744,4.687l0.174-0.131
			c-37.568,8.275-71.652,42.308-50.397,81.275l-0.159-0.151c6.995,20.012,41.69,33.573,64.429,42.005l-0.222-0.211
			c6.76,3.789,16.784,10.997,24.441,23.276l-0.209-0.199c4.415,4.298,5.332,19.045,9.681,8.283l-0.166,0.124
			c36.812-49.513,64.345-18.726,97.947-56.318l-0.325,0.245C211.021,167.86,214.602,158.62,215.344,144.389z"/></clipPath><g id="clip_1" clip-path="url(#SVGID_00000098196473159363713130000005384841478229902252_)"><image overflow="visible" x="0" y="55.48" width="215.344" height="184.52" xlink:href=""/></g></g><g id="change_1"><path fill="#B5964E" d="M126.839,32.853c0.014,0.003,0.027,0.007,0.041,0.011c0.042,0.02,0.016,0.031-0.168-0.036
		c0.008,0.001,0.017,0.003,0.025,0.004C126.771,32.839,126.807,32.845,126.839,32.853z M133.273,36.192
		c0.011,0.002,0.023,0.004,0.034,0.006c-0.193-0.065-0.197-0.052-0.148-0.033c0.012,0.003,0.024,0.007,0.037,0.01
		C133.221,36.181,133.247,36.187,133.273,36.192z M142.334,39.03c-2.708,0.319-5.447,0.344-8.154,0.009
		c-1.122-0.139-2.234-0.307-3.241-0.846c-1.059-0.567-1.639-1.596-1.904-2.734c-0.056-0.239-0.099-0.481-0.15-0.72
		c-0.023-0.109-0.066-0.563-0.159-0.622c0.063,0.172,0.076,0.21,0.039,0.116c-0.01-0.028-0.022-0.056-0.035-0.084
		c-0.021-0.049-0.043-0.097-0.067-0.145c-0.035-0.071-0.076-0.139-0.114-0.208c-0.002-0.002-0.003-0.003-0.004-0.005
		c-0.061-0.074-0.121-0.148-0.187-0.218c-0.027-0.029-0.074-0.063-0.104-0.097c-0.031-0.025-0.062-0.05-0.095-0.073
		c-0.078-0.056-0.159-0.108-0.241-0.158c-0.024-0.014-0.087-0.048-0.133-0.072c-0.059-0.027-0.125-0.056-0.147-0.065
		c-0.082-0.033-0.164-0.063-0.247-0.092c-0.168-0.058-0.339-0.106-0.512-0.149c-0.016-0.007-0.04-0.016-0.071-0.021
		c-0.024-0.004-0.048-0.007-0.072-0.012c-0.018-0.004-0.035-0.007-0.051-0.013c0.01,0.004,0.016,0.006,0.025,0.009
		c-0.072-0.012-0.144-0.024-0.215-0.035c-0.185-0.026-0.371-0.046-0.558-0.06c-0.413-0.032-0.828-0.04-1.243-0.029
		c-0.086,0.002-0.171,0.007-0.257,0.01c2.138,2.729,3.325,6.219,3.093,9.95c-0.27,4.332-2.396,8.105-5.554,10.599l1.587,0.099
		l1.569,0.098l2.258,0.14l0.23,0.014l-0.96,15.406l-2.488-0.155l0.507-8.14l-1.569-0.098l-0.507,8.14l-4.001-0.249l0.507-8.14
		l-2.043-0.127l-0.507,8.14l-4.001-0.249l0.507-8.14l-2.043-0.127l-0.507,8.14l-4.001-0.249l0.507-8.14l-2.043-0.127l-0.507,8.14
		l-4.001-0.249l0.507-8.14l-1.541-0.096l-0.507,8.14l-2.488-0.155l0.96-15.406l0.059,0.004l2.429,0.151l1.541,0.096l1.023,0.064
		c-2.824-2.866-4.465-6.874-4.196-11.206c0.275-4.416,2.48-8.249,5.738-10.74c-0.547-0.037-1.076-0.17-1.607-0.374
		c-0.645-0.248-1.294-0.464-1.969-0.618c-0.025-0.006-0.215-0.045-0.281-0.059c-0.055-0.01-0.113-0.021-0.116-0.022
		c-0.144-0.025-0.289-0.049-0.434-0.071c-0.345-0.052-0.691-0.095-1.037-0.132c-0.695-0.073-1.393-0.121-2.09-0.163
		c-0.699-0.043-1.399-0.089-2.1-0.099c-0.203-0.003-0.405-0.003-0.609,0.003c-0.074,0.002-0.148,0.004-0.221,0.007
		c-0.003,0-0.055,0.003-0.108,0.005c-0.058,0.005-0.187,0.014-0.192,0.015c-0.073,0.007-0.146,0.016-0.219,0.024
		c-0.161,0.02-0.323,0.044-0.483,0.073c-0.304,0.055-0.605,0.128-0.899,0.221c-0.031,0.01-0.061,0.02-0.091,0.029
		c-0.027,0.012-0.052,0.024-0.059,0.027c-0.143,0.058-0.283,0.121-0.421,0.19c-0.137,0.069-0.272,0.143-0.402,0.223
		c-0.02,0.012-0.051,0.028-0.082,0.046c-0.015,0.016-0.032,0.031-0.049,0.044c-0.109,0.083-0.215,0.17-0.316,0.263
		c-0.06,0.055-0.407,0.43-0.154,0.137c-0.242,0.281-0.48,0.475-0.842,0.568c-0.353,0.091-0.726-0.016-1.028-0.2
		c-0.281-0.172-0.501-0.525-0.568-0.843c-0.063-0.302-0.012-0.782,0.2-1.028c0.569-0.659,1.207-1.199,1.987-1.598
		c0.676-0.345,1.425-0.586,2.17-0.721c1.517-0.274,3.069-0.176,4.597-0.082c1.517,0.093,3.02,0.229,4.509,0.544
		c0.714,0.151,1.405,0.364,2.085,0.626c0.164,0.063,0.328,0.128,0.495,0.184c0.1,0.033,0.201,0.059,0.301,0.091
		c0.033,0.01,0.052,0.016,0.065,0.021c0.11,0.003,0.267-0.009,0.33-0.003c0.045-0.007,0.091-0.014,0.136-0.022
		c0.018-0.003,0.229-0.054,0.358-0.089c-0.052,0.022-0.086,0.038,0.02-0.005c0.002-0.001,0.003-0.001,0.005-0.002
		c0.046-0.013,0.078-0.023,0.076-0.025c-0.001-0.002-0.006-0.001-0.014,0.001c0.06-0.024,0.119-0.047,0.18-0.071
		c0.248-0.103,0.492-0.216,0.738-0.324c0.299-0.131,0.605-0.261,0.919-0.367c-5.449-1.066-10.696-2.962-15.567-5.644
		c-2.406-1.324-4.757-2.818-6.711-4.765c-1.796-1.788-3.278-4.123-3.578-6.684c-0.272-2.319,0.183-4.867,1.684-6.721
		c0.861-1.065,1.925-1.824,3.221-2.268c1.402-0.481,2.959-0.522,4.422-0.36c6.114,0.676,10.895,4.91,14.71,9.419
		c1.853,2.19,3.673,4.439,5.252,6.837c1.516,2.303,2.742,4.866,3.148,7.615c0.279-0.022,0.557-0.026,0.819-0.025
		c0.723,0.002,1.448,0.153,2.081,0.483c1.614-4.133,4.223-7.889,7.533-10.839c1.841-1.641,3.949-3.178,6.281-4.03
		c2.517-0.919,5.936-1.341,7.962,0.834c1.839,1.974,1.437,5.196,0.458,7.471c-1.033,2.401-2.787,4.412-4.87,5.968
		c-2.155,1.609-4.567,2.821-6.984,3.981c-1.289,0.618-2.604,1.184-3.973,1.602c-0.461,0.14-0.923,0.239-1.387,0.322
		c0.171,0.119,0.338,0.243,0.504,0.369c0.054,0.003,0.106,0.01,0.16,0.012c0.472,0.02,0.945,0.012,1.417-0.01
		c1.68-0.076,3.359-0.191,4.977,0.394c0.831,0.301,1.647,0.789,2.204,1.489c0.673,0.844,0.883,1.811,1.111,2.839
		c0.026,0.119,0.054,0.237,0.087,0.354c-0.001-0.002,0.008,0.033,0.018,0.071c0.004,0.008,0.007,0.013,0.012,0.024
		c0.037,0.081,0.077,0.161,0.115,0.242c0.007,0.016,0.01,0.024,0.016,0.035c0.022,0.025,0.04,0.047,0.039,0.045
		c0.025,0.031,0.053,0.059,0.08,0.088c0.061,0.042,0.175,0.135,0.201,0.152c0.033,0.022,0.069,0.041,0.103,0.061
		c0.08,0.033,0.16,0.072,0.238,0.101c0.195,0.072,0.395,0.129,0.597,0.177c0.02,0.008,0.046,0.016,0.072,0.02
		c0.014,0.003,0.027,0.005,0.041,0.007c0.018,0.004,0.037,0.007,0.053,0.012c-0.008-0.003-0.012-0.004-0.019-0.007
		c0.076,0.013,0.152,0.026,0.229,0.039c0.554,0.086,1.111,0.151,1.669,0.206c1.124,0.108,2.255,0.159,3.384,0.149
		c0.575-0.005,1.148-0.025,1.722-0.061c0.037-0.002,0.355-0.034,0.163-0.01c-0.167,0.021,0.023-0.002,0.049-0.005
		c0.153-0.013,0.306-0.025,0.458-0.04c0.267-0.025,0.533-0.054,0.8-0.086c0.752-0.089,1.402,0.283,1.596,1.043
		C143.547,38.095,143.036,38.947,142.334,39.03z M91.66,28.902c-0.019-0.002-0.067,0.018-0.108,0.037
		C91.588,28.927,91.624,28.915,91.66,28.902z M117.058,31.273c-0.104-0.041-0.209-0.08-0.315-0.119
		c-0.017,0.052-0.038,0.101-0.052,0.154c-0.003,0.014-0.006,0.029-0.009,0.044c0.018-0.052,0.037-0.05-0.018,0.097
		c0.001-0.01,0.002-0.02,0.003-0.03c0-0.001,0-0.001,0-0.001c-0.005,0.026-0.011,0.053-0.02,0.075
		c0.007-0.017,0.011-0.029,0.016-0.044c-0.016,0.15-0.037,0.297-0.047,0.447c-0.02,0.301-0.023,0.603-0.015,0.905
		c0.001,0.027,0,0.045,0,0.062c0.007,0.045,0.015,0.088,0.014,0.086c0.004,0.026,0.01,0.052,0.016,0.078
		c0.04-0.007,0.078-0.014,0.116-0.02c0.027-0.013,0.055-0.025,0.083-0.04c0.023-0.012,0.046-0.025,0.069-0.039
		c0.018-0.017,0.037-0.037,0.056-0.056c-0.021,0.007-0.004-0.024,0.099-0.098c-0.002,0.003-0.005,0.008-0.007,0.011
		c-0.001,0.002-0.003,0.003-0.005,0.006c0.008-0.007,0.015-0.013,0.023-0.02c0.001-0.003,0.002-0.005,0.003-0.007
		c-0.005,0.003-0.01,0.007-0.014,0.01c0.01-0.018,0.024-0.042,0.036-0.065c0.002-0.005,0.004-0.01,0.005-0.011
		c0.024-0.066,0.042-0.133,0.063-0.2c0.008-0.025,0.013-0.04,0.018-0.055c0.003-0.055,0.002-0.115,0.005-0.151
		c0.006-0.087,0.003-0.173,0.008-0.26c0.005-0.075,0.014-0.092,0.021-0.082c-0.013-0.136-0.072-0.321-0.087-0.399
		C117.106,31.457,117.081,31.366,117.058,31.273z M117.079,32.757c-0.001,0.002-0.001,0.003-0.002,0.005
		c0.008-0.007,0.017-0.016,0.025-0.022C117.092,32.747,117.087,32.751,117.079,32.757z M116.647,33.099
		c0.001,0.007,0.003,0.014,0.005,0.022v0.001c0.014,0.012,0.014,0.014,0.005,0.01c0,0.001,0.001,0.001,0.001,0.002
		C116.703,33.174,116.714,33.15,116.647,33.099z M116.519,33.024c0.008,0.004,0.02,0.013,0.031,0.02
		c0.001-0.001,0.003-0.001,0.005-0.001C116.543,33.036,116.533,33.03,116.519,33.024z M111.641,31.899
		c0.002-0.008,0.004-0.017,0.004-0.02c0.02-0.118,0.037-0.236,0.052-0.354c0.028-0.22,0.049-0.441,0.062-0.661
		c0.007-0.107,0.005-0.214,0.008-0.321c-0.454,0.045-0.9,0.112-1.338,0.21c-0.024,0.267-0.039,0.535-0.03,0.804
		c0,0.005,0.001,0.025,0.002,0.049c0.001,0.019,0.003,0.039,0.005,0.05c0.012,0.091,0.023,0.182,0.038,0.273
		c0.031,0.188,0.103,0.373,0.14,0.56c0.017,0.037,0.033,0.073,0.05,0.109c0.032,0.066,0.104,0.157,0.136,0.232
		c0.012,0.015,0.024,0.03,0.036,0.044c0.018,0.021,0.038,0.041,0.057,0.061c0.054,0.032,0.121,0.069,0.168,0.106
		c0.02,0.008,0.041,0.016,0.062,0.024c0.007,0.002,0.017,0.004,0.025,0.006c0.05-0.001,0.113-0.002,0.161,0.003c0,0,0,0,0.001,0
		c0.018-0.03,0.037-0.061,0.057-0.088c0.01-0.022,0.02-0.045,0.028-0.068c0.04-0.102,0.073-0.206,0.104-0.311
		c0.057-0.192,0.104-0.387,0.148-0.582c0.001,0.001,0,0.005,0.001,0.005c-0.001-0.001,0-0.007,0-0.011
		c0.003-0.014,0.007-0.029,0.01-0.043C111.65,31.884,111.648,31.876,111.641,31.899z M111.297,33.059
		c0.006-0.005,0.01-0.007,0.013-0.008l0,0C111.307,33.052,111.302,33.054,111.297,33.059z M111.257,33.11
		c-0.042,0.059-0.074,0.12,0.003-0.002C111.258,33.108,111.257,33.109,111.257,33.11z M111.203,33.097
		C111.203,33.098,111.203,33.098,111.203,33.097c0.004-0.001,0.005-0.001,0.009-0.002C111.209,33.097,111.206,33.097,111.203,33.097
		z M111.199,33.099c-0.001,0-0.001,0-0.002-0.001C111.15,33.108,111.129,33.115,111.199,33.099z M135.893,12.034
		c0.029,0.025,0.057,0.051,0.086,0.076C135.975,12.091,135.935,12.062,135.893,12.034z M134.725,11.551
		c0.05,0.01,0.099,0.02,0.148,0.03C134.856,11.56,134.786,11.554,134.725,11.551z M118.083,27.411
		c0.793-0.106,1.603-0.119,2.39-0.255c0.642-0.111,1.275-0.275,1.895-0.475c0.097-0.031,0.193-0.065,0.29-0.097
		c0.01-0.004,0.019-0.007,0.032-0.012c0.149-0.057,0.299-0.111,0.447-0.17c0.298-0.116,0.593-0.24,0.886-0.367
		c1.209-0.526,2.394-1.116,3.569-1.714c1.173-0.597,2.331-1.227,3.433-1.95c0.07-0.046,0.14-0.091,0.21-0.139
		c0.008-0.006,0.015-0.011,0.02-0.015c0.141-0.1,0.282-0.198,0.422-0.3c0.251-0.183,0.498-0.372,0.739-0.567
		c0.486-0.393,0.952-0.812,1.388-1.259c0.112-0.115,0.221-0.231,0.33-0.35c0.008-0.009,0.107-0.123,0.123-0.14
		c0.014-0.018,0.027-0.032,0.029-0.035c0.185-0.221,0.363-0.448,0.533-0.68c0.358-0.49,0.671-1.005,0.958-1.54
		c0.002-0.004,0.003-0.007,0.005-0.01c0.003-0.006,0.005-0.01,0.008-0.018c0.026-0.057,0.054-0.115,0.08-0.172
		c0.059-0.13,0.114-0.261,0.168-0.392c0.106-0.264,0.201-0.531,0.283-0.803c0.05-0.166,0.097-0.334,0.137-0.502
		c0.014-0.059,0.027-0.118,0.041-0.177c0.042-0.268,0.084-0.533,0.104-0.804c0.012-0.163,0.018-0.326,0.018-0.489
		c0-0.037-0.014-0.125-0.022-0.206c0.01,0.029,0.023,0.019,0.008-0.1c-0.001-0.012-0.003-0.023-0.005-0.035
		c0.002-0.006,0.004-0.012,0.007-0.016c-0.003,0.003-0.005,0.009-0.007,0.014c-0.008-0.061-0.016-0.122-0.025-0.183
		c-0.022-0.131-0.048-0.26-0.08-0.388c-0.018-0.07-0.039-0.139-0.059-0.208c-0.049-0.104-0.091-0.21-0.145-0.312
		c-0.029-0.055-0.063-0.108-0.093-0.163c-0.071-0.084-0.138-0.171-0.214-0.251c-0.033-0.035-0.069-0.068-0.103-0.101
		c-0.037-0.024-0.075-0.046-0.091-0.056c-0.07-0.048-0.155-0.089-0.234-0.134c0.029,0.027,0.01,0.027-0.091-0.056
		c0.005,0.002,0.009,0.005,0.014,0.007c-0.014-0.01-0.03-0.02-0.042-0.031c0.012,0.01,0.019,0.016,0.029,0.024
		c-0.003-0.001-0.006-0.003-0.009-0.004c-0.071-0.029-0.144-0.057-0.217-0.083c-0.118-0.041-0.237-0.076-0.357-0.107
		c-0.055-0.014-0.11-0.027-0.165-0.039c-0.033-0.002-0.064-0.003-0.08-0.006c-0.14-0.019-0.281-0.032-0.422-0.041
		c-0.141-0.008-0.282-0.012-0.424-0.012c-0.124,0-0.306,0.039-0.43,0.013c-0.013,0.001-0.026,0.002-0.039,0.004
		c-0.081,0.008-0.161,0.018-0.242,0.028c-0.145,0.019-0.289,0.041-0.432,0.067c-0.287,0.052-0.573,0.118-0.854,0.195
		c-0.157,0.043-0.311,0.094-0.467,0.141c-0.01,0.003-0.018,0.005-0.027,0.008c-0.066,0.024-0.132,0.048-0.197,0.073
		c-0.276,0.106-0.548,0.222-0.815,0.347c-0.569,0.265-1.119,0.569-1.653,0.899c-0.14,0.087-0.28,0.176-0.418,0.266
		c-0.054,0.035-0.114,0.069-0.165,0.109c0.029-0.022,0.048-0.037,0.066-0.051c-0.039,0.03-0.087,0.067-0.106,0.08
		c-0.234,0.163-0.466,0.33-0.695,0.502c-0.937,0.701-1.827,1.465-2.663,2.285c-0.424,0.415-0.833,0.844-1.228,1.287
		c-0.015,0.016-0.029,0.033-0.044,0.049c-0.043,0.05-0.086,0.1-0.129,0.15c-0.081,0.095-0.161,0.191-0.242,0.287
		c-0.18,0.216-0.355,0.435-0.528,0.657c-0.729,0.936-1.396,1.92-1.997,2.943c-0.3,0.512-0.557,1.047-0.849,1.563
		c0.185-0.325-0.046,0.096-0.091,0.192c-0.067,0.141-0.133,0.283-0.197,0.424c-0.116,0.256-0.229,0.513-0.336,0.772
		C118.658,25.642,118.348,26.52,118.083,27.411z M115.148,26.871c0.057,0.054,0.167,0.118,0.042,0.03
		C115.176,26.891,115.162,26.881,115.148,26.871z M113.82,26.626c0.059,0.168,0.112,0.338,0.166,0.508
		c0.451,0.033,0.896,0.084,1.333,0.157c0.001-0.006,0.001-0.012,0.003-0.018c0.008-0.033,0.019-0.065,0.027-0.097
		c-0.005-0.018-0.01-0.037-0.016-0.057c-0.01-0.02-0.021-0.04-0.031-0.061c-0.054-0.052-0.137-0.146-0.17-0.197
		c-0.014-0.01-0.029-0.021-0.044-0.031c-0.018-0.012-0.036-0.024-0.054-0.035c-0.016-0.008-0.029-0.016-0.039-0.02
		c-0.116-0.046-0.233-0.076-0.352-0.112c-0.04-0.005-0.082-0.012-0.122-0.016c-0.134-0.015-0.27-0.023-0.406-0.025
		C114.017,26.62,113.919,26.623,113.82,26.626z M113.619,26.634c-0.001,0.005,0.099,0.008,0.131-0.008c-0.003,0-0.007,0-0.01,0
		C113.707,26.632,113.646,26.634,113.619,26.634z M106.94,23.834c0.006,0.001,0.084,0.017,0.143,0.029
		c0.057,0.011,0.124,0.024,0.129,0.025c0.07,0.013,0.14,0.027,0.209,0.04c0.349,0.065,0.699,0.127,1.049,0.185
		c0.701,0.116,1.403,0.217,2.108,0.305c0.047,0.006,0.091,0.019,0.136,0.029c-0.091-0.599-0.219-1.19-0.386-1.772
		c-0.049-0.17-0.101-0.339-0.156-0.507c-0.006-0.018-0.103-0.322-0.035-0.109c0.067,0.212-0.032-0.089-0.039-0.108
		c-0.106-0.287-0.219-0.571-0.34-0.852c-0.249-0.58-0.53-1.146-0.833-1.7c-0.314-0.573-0.653-1.132-1.009-1.68
		c-0.054-0.083-0.108-0.165-0.162-0.247c-0.01-0.014-0.031-0.046-0.052-0.078c-0.074-0.11-0.151-0.22-0.227-0.329
		c-0.18-0.257-0.362-0.511-0.546-0.764c-1.608-2.198-3.339-4.338-5.161-6.361c-0.901-1-1.841-1.981-2.86-2.862
		c-0.049-0.042-0.11-0.094-0.131-0.112c-0.067-0.057-0.133-0.113-0.2-0.169c-0.134-0.112-0.27-0.223-0.407-0.332
		c-0.242-0.194-0.488-0.383-0.739-0.567c-0.551-0.405-1.121-0.784-1.709-1.133c-0.309-0.183-0.623-0.358-0.942-0.523
		c-0.054-0.027-0.107-0.055-0.161-0.082c-0.011-0.005-0.022-0.01-0.031-0.014C94.433,4.073,94.279,4,94.124,3.93
		c-0.621-0.276-1.259-0.516-1.91-0.712c-0.324-0.097-0.652-0.184-0.982-0.259c-0.072-0.016-0.144-0.031-0.217-0.047
		C91.007,2.912,91,2.91,90.99,2.909c-0.167-0.028-0.333-0.057-0.5-0.081c-0.673-0.095-1.353-0.14-2.032-0.125
		c-0.103,0.002-0.207,0.007-0.31,0.011c-0.034,0.001-0.046,0.001-0.063,0.002c-0.133,0.008-0.276,0.034-0.399,0.052
		c-0.323,0.048-0.642,0.115-0.956,0.206c-0.05,0.014-0.099,0.029-0.148,0.045c-0.027,0.009-0.048,0.016-0.064,0.021
		c-0.035,0.016-0.068,0.033-0.089,0.041c-0.125,0.052-0.247,0.11-0.368,0.172c-0.096,0.05-0.189,0.103-0.281,0.158
		c-0.014,0.003-0.039,0.013-0.068,0.035c-0.016,0.012-0.031,0.024-0.046,0.037c-0.019,0.012-0.037,0.025-0.056,0.033
		c0.013-0.006,0.022-0.01,0.033-0.015c-0.191,0.145-0.377,0.295-0.551,0.462c-0.072,0.069-0.138,0.145-0.21,0.215
		c-0.018,0.022-0.037,0.044-0.055,0.067c-0.161,0.201-0.308,0.413-0.443,0.633c-0.058,0.095-0.113,0.191-0.166,0.288
		c0.006-0.015,0.012-0.03,0.019-0.048c-0.018,0.046-0.044,0.091-0.064,0.135c-0.211,0.458-0.373,0.938-0.488,1.429
		c-0.005,0.022-0.01,0.044-0.014,0.066c0.02-0.08,0.041-0.125-0.019,0.099c0.002-0.01,0.003-0.021,0.005-0.031
		c0.001-0.007,0.003-0.014,0.005-0.022c-0.008,0.038-0.015,0.076-0.025,0.113c0.007-0.024,0.01-0.04,0.016-0.059
		c-0.016,0.104-0.033,0.207-0.047,0.311c-0.033,0.255-0.054,0.512-0.064,0.769c-0.009,0.253-0.003,0.504,0.005,0.757
		c0.004,0.04,0.008,0.08,0.012,0.12c0.014,0.128,0.031,0.256,0.05,0.383c0.039,0.254,0.09,0.506,0.153,0.755
		c0.031,0.124,0.066,0.247,0.103,0.37c0.012,0.041,0.026,0.082,0.039,0.123c0.214,0.54,0.458,1.063,0.752,1.564
		c0.085,0.144,0.172,0.287,0.264,0.427c0.014,0.022,0.191,0.26,0.056,0.085c-0.137-0.176,0.046,0.062,0.06,0.082
		c0.169,0.235,0.346,0.465,0.53,0.688c0.381,0.462,0.793,0.898,1.227,1.31c0.134,0.128,0.272,0.253,0.409,0.377
		c0.042,0.038,0.061,0.055,0.068,0.062c0.032,0.026,0.065,0.051,0.095,0.076c0.214,0.18,0.433,0.356,0.654,0.529
		c0.994,0.772,2.051,1.461,3.131,2.107c0.609,0.364,1.226,0.716,1.85,1.054c0.312,0.169,0.625,0.335,0.941,0.498
		c0.158,0.082,0.316,0.161,0.475,0.242c0.007,0.003,0.009,0.005,0.015,0.008c0.081,0.04,0.163,0.08,0.244,0.12
		c2.521,1.228,5.142,2.25,7.828,3.054c1.36,0.407,2.737,0.758,4.126,1.051C106.731,23.791,106.836,23.812,106.94,23.834z
		 M104.288,27.445c0.003-0.001,0.005-0.001,0.007-0.001C104.212,27.455,104.131,27.473,104.288,27.445z M103.921,27.41
		c0.003,0.018,0.05,0.024,0.112,0.025C103.996,27.424,103.92,27.402,103.921,27.41z M119.816,32.846
		c-0.057,0.379-0.165,0.75-0.343,1.108c-0.302,0.608-0.802,1.081-1.397,1.404c-1.133,0.614-2.722,0.526-3.539-0.563
		c-0.292-0.389-0.448-0.812-0.533-1.255c-0.163,0.488-0.388,0.949-0.726,1.334c-0.778,0.887-2.091,1.137-3.177,0.7
		c-1.587-0.637-2.268-2.219-2.381-3.827c-3.4,1.764-5.823,5.205-6.078,9.306c-0.328,5.263,3.015,9.894,7.817,11.431l2.023,0.126
		l2.043,0.127l1.458,0.091c4.956-0.929,8.847-5.11,9.175-10.373C124.396,38.588,122.658,35.058,119.816,32.846z M131.794,35.341
		c0.001,0.001-0.009-0.025-0.022-0.057C131.78,35.315,131.789,35.34,131.794,35.341z M131.873,35.505
		c-0.019-0.033-0.036-0.061-0.038-0.055C131.833,35.454,131.852,35.479,131.873,35.505z M111.619,32.019
		c0.001-0.022,0.014-0.087,0.022-0.121c-0.01,0.029-0.029,0.108-0.023,0.126C111.618,32.023,111.619,32.021,111.619,32.019z
		 M136.601,13.772c-0.005-0.056-0.006-0.107,0.004-0.135c0-0.001,0-0.001,0-0.002C136.583,13.674,136.59,13.742,136.601,13.772z
		 M85.778,3.411c-0.014,0.008-0.03,0.016-0.044,0.025c-0.022,0.014-0.046,0.031-0.07,0.047c-0.007,0.006-0.014,0.012-0.022,0.017
		C85.781,3.437,85.804,3.406,85.778,3.411z M84.217,5.165L84.217,5.165C84.17,5.252,84.097,5.464,84.217,5.165z M104.946,27.288
		c-0.02,0.005-0.057,0.019-0.088,0.032c0.008-0.003,0.018-0.005,0.025-0.007C104.904,27.305,104.925,27.297,104.946,27.288z"/></g></svg>